<?xml version="1.0" encoding="UTF-8"?>
<svg id="Text_Logo" xmlns="http://www.w3.org/2000/svg" viewBox="0 0 576.88 44.37">
  <defs>
    <style>
      .cls-1 {
        fill: #2e2e2e;
      }
    </style>
  </defs>
  <path class="cls-1" d="M0,44.37C-.7,29.6-1.39,14.82-2.09.05c14.89-.7,29.78-1.35,44.68-1.94.59,14.78,1.18,29.56,1.77,44.34-2.96.12-5.91.24-8.87.36-.49-11.82-.98-23.65-1.47-35.47-2.97.12-5.95.25-8.92.38.38,8.87.76,17.73,1.14,26.6-2.96.13-5.92.26-8.88.39-.13-2.96-.26-5.91-.39-8.87-2.97.13-5.93.26-8.9.4.27,5.91.54,11.82.81,17.73-2.96.14-5.91.27-8.87.41Z"/>
  <path class="cls-1" d="M97.04,22.81c-8.9.28-17.8.57-26.7.89.11,2.96.21,5.91.32,8.87,8.89-.32,17.77-.61,26.66-.89.09,2.96.18,5.91.28,8.87-14.79.46-29.58.98-44.37,1.54-.57-14.78-1.14-29.56-1.7-44.34,14.89-.57,29.79-1.09,44.69-1.56.09,2.96.18,5.91.28,8.87-11.9.37-23.8.78-35.7,1.22.11,2.96.22,5.91.33,8.87,11.88-.44,23.76-.84,35.65-1.22.09,2.96.18,5.91.28,8.87Z"/>
  <path class="cls-1" d="M150.05,3.63c-5.95.13-11.9.28-17.85.43.08,2.96.15,5.91.23,8.87,2.97-.08,5.94-.15,8.91-.22.21,8.87.42,17.74.64,26.62-5.92.14-11.83.29-17.75.45-.32-11.83-.63-23.66-.95-35.49-5.95.16-11.9.33-17.85.5-.09-2.96-.18-5.91-.26-8.87,14.9-.44,29.8-.83,44.7-1.17.07,2.96.13,5.92.2,8.87Z"/>
  <path class="cls-1" d="M203.86,20.41c-8.9.12-17.8.26-26.71.43.05,2.96.11,5.92.16,8.87,8.89-.16,17.78-.3,26.67-.43.04,2.96.08,5.92.12,8.87-14.79.2-29.59.46-44.38.77-.31-14.79-.62-29.58-.93-44.37,14.9-.31,29.8-.57,44.7-.78.04,2.96.08,5.92.12,8.87-11.9.16-23.81.36-35.71.6.06,2.96.12,5.92.17,8.87,11.89-.23,23.77-.43,35.66-.59.04,2.96.08,5.92.12,8.87Z"/>
  <path class="cls-1" d="M212.98,38.04c-.18-14.79-.36-29.58-.55-44.37,14.9-.18,29.8-.31,44.71-.39.08,14.79.15,29.58.23,44.37-14.8.08-29.59.2-44.39.39ZM221.57,11.32c2.97-.03,5.94-.06,8.92-.09.06,5.92.11,11.83.17,17.75,5.93-.06,11.85-.1,17.78-.14-.06-8.87-.12-17.75-.17-26.62-8.93.06-17.86.14-26.79.23.03,2.96.06,5.92.1,8.87Z"/>
  <path class="cls-1" d="M292.88,28.7c0-2.96,0-5.92,0-8.88-2.97,0-5.94,0-8.9,0,0,5.92,0,11.83.01,17.75-5.92,0-11.84.02-17.75.04-.05-14.79-.11-29.58-.16-44.37,14.9-.05,29.81-.05,44.71,0-.03,8.87-.06,17.75-.1,26.62-2.97-.01-5.94-.02-8.9-.03,0,2.96-.01,5.92-.02,8.87-2.96,0-5.93-.01-8.89-.01ZM301.83,2.09c-8.93-.02-17.86-.02-26.79,0,0,2.96.01,5.92.02,8.88,8.92-.02,17.83-.02,26.75,0,0-2.96.01-5.92.02-8.88ZM310.66,28.74c-.01,2.96-.02,5.92-.03,8.87-2.96-.01-5.92-.02-8.88-.03,0-2.96.01-5.92.02-8.88,2.96,0,5.93.02,8.89.03Z"/>
  <path class="cls-1" d="M399.56,29.71c.05-2.96.11-5.92.16-8.87-2.97-.05-5.93-.11-8.9-.15-.1,5.92-.2,11.83-.3,17.75-5.92-.1-11.84-.19-17.75-.27.2-14.79.41-29.58.61-44.37,14.9.21,29.8.46,44.7.78-.19,8.87-.37,17.75-.56,26.62-2.97-.06-5.93-.12-8.9-.18-.06,2.96-.12,5.92-.17,8.87-2.96-.06-5.93-.11-8.89-.17ZM408.97,3.26c-8.93-.17-17.86-.33-26.78-.47-.05,2.96-.09,5.92-.14,8.87,8.92.14,17.83.29,26.75.47.06-2.96.12-5.92.17-8.87ZM417.34,30.06c-.06,2.96-.12,5.92-.19,8.87-2.96-.06-5.92-.12-8.88-.18.06-2.96.12-5.92.17-8.87,2.96.06,5.93.12,8.89.18Z"/>
  <path class="cls-1" d="M427.03-5.24c2.98.07,5.96.14,8.94.21-.14,5.91-.28,11.83-.42,17.74,2.97.07,5.94.14,8.91.22-.15,5.91-.3,11.83-.45,17.74,5.93.15,11.85.31,17.78.48.33-11.83.67-23.66,1-35.49,2.98.08,5.96.17,8.94.26-.44,14.79-.88,29.57-1.32,44.36-14.79-.44-29.58-.83-44.38-1.16.33-14.79.66-29.58,1-44.36Z"/>
  <path class="cls-1" d="M480.66-3.8c14.9.46,29.79.98,44.69,1.56-.11,2.96-.23,5.91-.34,8.87-11.9-.46-23.8-.88-35.7-1.27-.1,2.96-.19,5.91-.29,8.87,11.88.39,23.77.81,35.65,1.27-.34,8.87-.68,17.74-1.02,26.61-14.79-.57-29.58-1.08-44.37-1.54.09-2.96.18-5.91.28-8.87,8.89.28,17.77.57,26.66.89.1-2.96.21-5.91.32-8.87-8.9-.32-17.8-.61-26.7-.89.28-8.87.55-17.74.83-26.61Z"/>
  <path class="cls-1" d="M578.97.05c-.7,14.78-1.39,29.55-2.09,44.33-2.96-.14-5.91-.28-8.87-.41.27-5.91.54-11.82.81-17.73-5.93-.27-11.86-.53-17.79-.79-.25,5.91-.51,11.82-.76,17.73-5.91-.25-11.83-.5-17.74-.73.59-14.78,1.18-29.56,1.77-44.34,2.98.12,5.96.24,8.94.36-.24,5.91-.49,11.82-.73,17.73,8.91.37,17.82.76,26.73,1.16.27-5.91.54-11.82.81-17.73,2.98.14,5.96.27,8.93.41Z"/>
</svg>